<?xml version="1.0" encoding="utf-8"?>
<!-- Generator: Adobe Illustrator 28.1.0, SVG Export Plug-In . SVG Version: 6.00 Build 0)  -->
<svg version="1.1" id="Layer_1" xmlns="http://www.w3.org/2000/svg" xmlns:xlink="http://www.w3.org/1999/xlink" x="0px" y="0px"
	 viewBox="0 0 792 612" style="enable-background:new 0 0 792 612;" xml:space="preserve">
<style type="text/css">
	.st0{fill:#3D914C;}
</style>
<g>
	<path class="st0" d="M477.3,241.2v-3c0-4.7-3.8-8.6-8.6-8.6H320.6c-4.7,0-8.6,3.8-8.6,8.6v135c0,4.7,3.8,8.6,8.6,8.6H384v-19.9
		c0-0.7-0.6-1.3-1.3-1.3H345c-1,0-1.6-1.1-1.1-1.9l18.2-31.2c0.5-0.9-0.1-1.9-1.1-1.9h-11.8c-1.1,0-1.7-1.3-1-2.1l22.6-26.1
		c0.7-0.8,0.1-2.1-1-2.1h-9.7c-1,0-1.6-1.2-1-2l34.3-47.8c0.5-0.7,1.6-0.7,2.1,0l35.1,47.8c0.6,0.8,0,2-1,2l-9.1,0
		c-1.1,0-1.7,1.2-1,2.1l21.6,26.9c0.7,0.8,0.1,2.1-1,2.1h-11.4c-1,0-1.6,1.1-1.1,1.9l17.8,31c0.5,0.9-0.1,1.9-1.1,1.9h-36.1
		c-0.7,0-1.3,0.6-1.3,1.3v19.4h61.8c4.7,0,8.6-3.8,8.6-8.6v-3h-12.7v-6.3h12.7v-11.3h-20.8v-6.3h20.8v-11.3h-12.7v-6.3h12.7v-11.3
		h-20.1v-6.3h20.1v-11.3h-12.7v-6.3h12.7v-11.3H455v-6.3h22.3v-11.3h-12.7v-6.3h12.7v-10.3H455v-6.3H477.3z"/>
</g>
</svg>
