<?xml version="1.0" standalone="no"?>
<!DOCTYPE svg PUBLIC "-//W3C//DTD SVG 20010904//EN"
 "http://www.w3.org/TR/2001/REC-SVG-20010904/DTD/svg10.dtd">
<svg version="1.0" xmlns="http://www.w3.org/2000/svg"
 width="689.000000pt" height="689.000000pt" viewBox="0 0 689.000000 689.000000"
 preserveAspectRatio="xMidYMid meet">
<metadata>
Created by potrace 1.14, written by Peter Selinger 2001-2017
</metadata>
<g transform="translate(0.000000,689.000000) scale(0.100000,-0.100000)"
fill="#000000" stroke="none">
<path d="M275 6604 c-107 -28 -189 -94 -238 -193 l-32 -66 -2 -2885 c-3 -3177
-8 -2934 58 -3030 43 -62 107 -111 181 -137 l63 -22 1348 -1 c1276 0 1347 1
1348 18 0 9 1 200 1 425 1 370 -1 409 -16 426 -17 18 -46 19 -822 18 -771 0
-805 1 -824 18 -14 12 -19 27 -16 40 3 11 96 175 207 365 111 190 218 374 239
410 20 36 100 173 177 305 77 132 143 249 147 259 4 11 0 29 -9 42 l-15 24
-266 0 c-164 0 -273 4 -285 10 -41 22 -16 76 86 186 10 11 84 96 125 144 12
14 43 50 69 80 551 631 659 757 665 777 4 13 0 29 -12 43 -18 22 -21 23 -239
22 -204 0 -223 2 -242 19 -16 15 -18 24 -11 43 7 20 65 106 108 161 9 12 990
1379 1037 1445 200 282 300 416 316 422 10 4 26 5 34 1 9 -3 92 -110 185 -237
152 -206 313 -425 698 -950 65 -87 151 -204 192 -260 41 -55 124 -168 185
-251 60 -82 113 -154 118 -160 61 -77 117 -163 117 -181 0 -46 -26 -51 -239
-52 -128 0 -206 -4 -220 -11 -47 -26 -31 -54 180 -316 111 -137 216 -268 233
-289 17 -21 43 -53 57 -70 207 -249 429 -539 429 -559 0 -47 -12 -49 -286 -50
-237 0 -258 -1 -275 -18 -24 -24 -24 -40 0 -81 10 -18 89 -157 176 -308 87
-151 169 -295 183 -320 13 -25 28 -49 32 -55 4 -5 18 -30 32 -55 14 -25 89
-156 167 -293 78 -136 144 -256 146 -266 2 -11 -5 -27 -15 -36 -18 -16 -76
-18 -790 -18 -808 1 -797 1 -801 -40 -1 -7 -2 -195 -3 -420 l-1 -407 1330 2
1330 3 62 29 c76 35 144 104 180 184 23 48 27 73 29 163 l2 107 -259 -1 c-143
0 -262 3 -266 6 -5 5 -8 192 -4 245 1 9 61 12 264 12 l264 0 0 234 c0 164 -3
236 -11 239 -6 2 -201 3 -434 3 l-423 -1 3 130 3 130 420 1 c231 1 425 2 431
3 7 1 11 76 11 236 l0 235 -263 0 -264 0 -1 23 c-1 32 -1 198 0 222 1 19 7 20
248 18 137 -1 255 1 264 3 14 4 16 31 15 237 l-1 232 -415 0 -415 0 0 130 0
130 405 2 c223 1 410 2 416 2 7 1 11 74 11 236 0 208 -2 235 -16 236 -9 0
-127 0 -263 0 -184 0 -248 3 -249 12 -1 16 -1 207 0 232 1 20 7 20 264 18
l264 -1 0 238 0 238 -451 1 c-248 0 -457 0 -463 0 -10 1 -13 34 -13 131 l0
130 463 0 464 0 0 235 c0 208 -2 235 -16 236 -9 0 -127 1 -263 1 -171 1 -248
5 -249 12 -1 14 -1 205 0 231 1 20 8 20 264 20 l262 0 1 213 c1 147 -2 212
-10 213 -6 1 -213 2 -461 3 l-450 1 -3 131 -3 131 457 -1 c295 -1 459 3 464 9
11 14 5 192 -8 233 -35 110 -147 211 -262 238 -58 13 -6282 11 -6335 -2z"/>
</g>
</svg>
