<?xml version="1.0" encoding="utf-8"?>
<!-- Generator: Adobe Illustrator 28.1.0, SVG Export Plug-In . SVG Version: 6.00 Build 0)  -->
<svg version="1.1" id="Layer_1" xmlns="http://www.w3.org/2000/svg" xmlns:xlink="http://www.w3.org/1999/xlink" x="0px" y="0px"
	 viewBox="0 0 792 612" style="enable-background:new 0 0 792 612;" xml:space="preserve">
<g>
	<path d="M484.1,300c-0.5,1.1-0.9,2-1.3,2.9c-3.1,7.2-6.6,14.3-10.1,21.4c-0.6,1.2-1.4,1.7-2.8,1.7c-2.1,0-4.3-0.1-6.4,0
		c-1.5,0-2.5-0.5-3.2-1.9c-3.8-7.5-7.5-15.2-10.8-22.9c-0.1-0.3-0.2-0.5-0.3-0.6c0,2.6-0.1,5.3,0,8c0.3,6.7,0.5,13.4,0.5,20.1
		c0,2.6,0,5.2,0,7.9c0,2.1-0.4,2.5-2.5,2.5c-2.9,0-5.7,0-8.6,0c-2.2,0-2.7-0.4-2.7-2.6c0-13.6,0-27.1,0-40.7c0-4.7,0-9.4,0-14.1
		c0-2.1,0.5-2.6,2.6-2.6c3.3,0,6.7,0,10,0c1.6,0,2.5,0.6,3.3,2c4.9,9.6,10,19.2,14.2,29.2c0.1,0.2,0.2,0.4,0.3,0.6
		c0.6-0.2,0.6-0.7,0.8-1.2c4-9.6,8.9-18.7,13.6-28c1-1.9,2.1-2.8,4.3-2.7c3.1,0.2,6.2,0,9.4,0c2,0,2.5,0.5,2.5,2.4
		c0,4.7,0,9.4,0,14.1c0,13.3,0,26.7,0,40c0,0.6,0,1.2-0.1,1.7c-0.1,1.1-0.7,1.7-1.8,1.7c-3.3,0-6.7,0-10,0c-1.2,0-1.8-0.7-1.8-1.9
		c0.1-7.2-0.2-14.4,0.2-21.6c0.2-4,0.3-7.9,0.4-11.9C484,302.6,484.4,301.4,484.1,300"/>
	<path d="M291,277.9c7.3-0.1,13.9,2.2,20,6.3c1.3,0.9,1.4,1.5,0.5,2.8c-1.5,2.3-3.1,4.6-4.6,6.9c-1.2,1.8-1.8,1.9-3.6,0.8
		c-4.7-2.9-9.8-4-15.2-3.6c-1.1,0.1-2.2,0.3-3.2,0.8c-1.6,0.7-2.6,1.9-2.7,3.7c-0.1,1.8,0.8,3.1,2.3,3.9c2.4,1.3,5.1,1.8,7.7,2.5
		c4.5,1.2,9,2.3,13.1,4.5c6,3.3,8.9,8.3,8.8,15.1c-0.2,7.3-3.6,12.9-10.4,15.8c-12.9,5.4-24.9,3.4-35.8-5.3c-0.9-0.7-1-1.5-0.4-2.5
		c1.8-2.6,3.6-5.2,5.5-7.8c0.8-1.1,1.7-1,2.7-0.3c3,2.1,6.3,3.8,9.8,4.8c3,0.8,6,1.1,9,0.5c1.1-0.2,2.1-0.6,3-1.1
		c3.3-1.9,3.4-5.8,0.2-7.8c-2.1-1.3-4.4-1.9-6.8-2.3c-3.9-0.8-7.6-1.8-11.2-3.4c-5.5-2.5-9.7-6.3-11.1-12.5
		c-1.9-8.6,2-16.1,10.2-19.4C282.7,278.4,286.8,278,291,277.9"/>
	<path d="M531,321.7c-3.5,0-7,0-10.4,0c-1.3,0-1.7,0.3-1.7,1.7c0.2,3.3,2.5,5.6,6.2,5.7c3.9,0.2,7.6-0.8,11-2.7
		c1.5-0.8,1.8-0.8,2.8,0.5c1.3,1.7,2.6,3.5,3.9,5.2c0.7,0.9,0.7,1.8-0.2,2.6c-8.1,6.4-20.9,7.1-28.7,2.7c-4.7-2.7-7.5-6.7-8-12
		c-0.5-5.5-0.6-11,0-16.5c0.9-7.5,5.5-12.3,12.9-14c5.5-1.3,10.9-1.2,16.1,1.2c5.3,2.4,8.1,6.8,8.9,12.5c0.5,3.8,0.2,7.6,0.2,11.3
		c0,1.4-0.6,1.8-2.2,1.8C538.2,321.7,534.6,321.7,531,321.7L531,321.7z M525.1,313.1c1.7,0,3.5,0,5.2,0c0.5,0,0.9-0.1,1.1-0.7
		c0.6-2.5-1-5.7-3.3-6.7c-5-2.2-9.5,0.9-9.2,6.3c0,0.8,0.3,1.1,1.1,1.1C521.7,313,523.4,313.1,525.1,313.1"/>
	<path d="M385.5,325.5c2.3-8.2,4.5-16,6.7-23.8c0.4-1.6,0.9-3.2,1.4-4.7c0.3-1.2,1.1-1.7,2.4-1.7c3.1,0,6.2,0,9.4,0
		c2.1,0,2.5,0.6,1.8,2.7c-4.2,11.9-8.3,23.7-12.5,35.6c-0.5,1.3-0.9,2.6-1.4,3.9c-0.4,1.1-1.1,1.7-2.3,1.7c-3.7,0-7.3,0-11,0
		c-1.3,0-2-0.7-2.3-1.8c-1.4-4.1-2.9-8.2-4.3-12.4c-3.1-9-6.2-17.9-9.3-26.9c-0.8-2.3-0.4-2.8,2-2.8c2.9,0,5.8,0,8.7,0
		c2,0,2.4,0.3,2.9,2.2c2.5,9,5,18,7.5,27C385.2,324.7,385.3,324.9,385.5,325.5"/>
	<path d="M633,317c0-2.6-0.2-5.2,0.1-7.7c1.1-7.6,5.7-12.7,13.2-14.5c6.9-1.6,13.5-0.8,19.6,2.8c1.7,1,1.8,1.6,0.8,3.2
		c-1.2,1.8-2.4,3.7-3.6,5.5c-1.2,1.7-1.6,1.8-3.4,0.9c-2.7-1.2-5.5-1.9-8.6-1.3c-3.1,0.7-4.9,2.8-4.9,5.9c0,3.3,0,6.6,0,9.9
		c0,4.2,2.3,6.5,6.5,6.7c2.9,0.1,5.5-0.6,8-2.1c1.6-0.9,2.1-0.8,3.2,0.8c1.3,1.9,2.6,3.8,3.9,5.7c0.8,1.2,0.7,1.9-0.4,2.7
		c-7.1,5.4-19.3,6-26.9,1.4c-5.1-3.1-7.3-7.9-7.6-13.6C632.9,321.3,633,319.2,633,317"/>
	<path d="M550.9,305.6c0-6,0-11.9,0-17.9c0-2.6,0.4-3,3-3c2.3,0,4.6,0,7,0c1.6,0,2,0.3,2.2,1.9c0.3,2.7,0.6,5.5,0.9,8.2
		c0.1,1,0.5,1.4,1.5,1.4c1.8-0.1,3.7,0,5.5,0c1.6,0,2.1,0.5,2.2,2.1c0,2.4,0,4.8,0,7.2c0,1.2-0.6,1.9-1.9,1.9c-1.9,0-3.8,0-5.7,0
		c-0.9,0-1.2,0.3-1.2,1.2c0,5,0,10,0.1,14.9c0.1,3.1,2,4.8,5.1,4.8c0.9,0,1.8,0,2.7-0.1c1.2-0.1,2,0.3,2,1.5
		c0.1,2.8,0.2,5.5-0.1,8.3c-0.1,0.9-0.6,1.5-1.5,1.7c-4.9,0.8-9.7,0.7-14.2-1.7c-4.6-2.4-6.6-6.6-7.2-11.5c-0.2-1.6-0.2-3.2-0.2-4.8
		C550.9,316.3,550.9,311,550.9,305.6"/>
	<path d="M343,303.3c0-7.2,0-14.5,0-21.7c0-2.2,0.4-2.6,2.7-2.6c2.6,0,5.3,0,7.9,0c2.2,0,2.6,0.4,2.6,2.7c0,13.2,0,26.5,0,39.7
		c0,1.3,0,2.6,0.4,3.8c0.6,1.8,1.9,2.8,3.8,2.8c1,0,2,0,2.9,0c1.2,0,1.9,0.5,1.9,1.7c0,2.8,0,5.5,0,8.3c0,0.8-0.3,1.5-1.2,1.7
		c-4.7,0.8-9.3,0.9-13.7-1.5c-5.2-2.8-7.1-7.6-7.2-13.1C342.9,317.8,343,310.6,343,303.3L343,303.3z"/>
	<path d="M580.1,318.5c0-5.9,0-11.7,0-17.6c0-2,0.7-3.1,2.5-3.9c6.3-2.7,12.9-3.4,19.6-2.5c4.2,0.6,4.4,0.1,4.3,5c0,1.5,0,2.9,0,4.4
		c-0.1,1.7-0.6,2-2.3,1.9c-3-0.2-6-0.4-9.1,0.2c-1.4,0.2-1.9,0.8-1.9,2.3c0.1,9.3,0,18.7,0,28c0,2.4-0.3,2.7-2.7,2.7
		c-2.6,0-5.2,0-7.8,0c-2.4,0-2.8-0.4-2.8-2.8C580.1,330.3,580.1,324.4,580.1,318.5"/>
	<path d="M334.3,317.1c0,6.4,0,12.9,0,19.3c0,2.2-0.4,2.6-2.5,2.6c-2.8,0-5.5,0-8.3,0c-1.8,0-2.3-0.5-2.3-2.3c0-13.1,0-26.1,0-39.2
		c0-1.8,0.5-2.3,2.3-2.3c2.9,0,5.7,0,8.6,0c1.9,0,2.3,0.4,2.3,2.3C334.3,304,334.3,310.6,334.3,317.1"/>
	<path d="M412.5,317.1c0-6.4,0-12.7,0-19.1c0-2.5,0.3-2.8,2.9-2.8c2.6,0,5.3,0,7.9,0c2,0,2.4,0.4,2.4,2.5c0,6.6,0,13.2,0,19.7
		c0,6.1,0,12.2,0,18.3c0,3.2-0.2,3.4-3.4,3.4c-2.4,0-4.7,0-7.1,0c-2.3,0-2.7-0.4-2.7-2.6C412.5,330,412.5,323.5,412.5,317.1"/>
	<path d="M625.3,317.2c0,6.3,0,12.5,0,18.8c0,2.7-0.4,3-3,3c-2.7,0-5.3,0-8,0c-1.7,0-2.2-0.5-2.2-2.1c0-13.2,0-26.4,0-39.6
		c0-1.6,0.5-2,2.1-2.1c2.8,0,5.6,0,8.4,0c2.2,0,2.6,0.4,2.6,2.7c0,5.2,0,10.5,0,15.7C625.3,314.8,625.3,316,625.3,317.2"/>
	<path d="M419.2,275.2c4.1,0,7.1,3,7.1,7.2c0,4.1-3.2,7.2-7.2,7.2c-4.1,0-7.4-3.3-7.3-7.3C411.8,278.2,415,275.2,419.2,275.2"/>
	<path d="M625.9,282.4c0,4.1-3.2,7.3-7.2,7.2c-4.1,0-7.3-3.3-7.3-7.3c0-4.1,3.2-7.2,7.4-7.1C622.8,275.2,625.9,278.3,625.9,282.4"/>
	<path d="M334.9,282.3c0,4.1-3.1,7.3-7.2,7.3c-4,0-7.2-3.2-7.2-7.2c0-4.1,3-7.2,7.2-7.3C331.9,275.2,334.9,278.1,334.9,282.3"/>
	<path d="M244.4,264.3v-1.9c0-3-2.5-5.5-5.5-5.5h-95.1c-3,0-5.5,2.5-5.5,5.5V349c0,3,2.5,5.5,5.5,5.5h40.7v-12.8
		c0-0.5-0.4-0.8-0.8-0.8h-24.3c-0.6,0-1-0.7-0.7-1.2l11.7-20.1c0.3-0.5-0.1-1.2-0.7-1.2h-7.6c-0.7,0-1.1-0.8-0.6-1.4l14.5-16.7
		c0.5-0.5,0.1-1.4-0.6-1.4h-6.2c-0.7,0-1.1-0.8-0.7-1.3l22-30.7c0.3-0.5,1-0.5,1.3,0l22.5,30.7c0.4,0.5,0,1.3-0.7,1.3l-5.8,0
		c-0.7,0-1.1,0.8-0.6,1.3l13.9,17.3c0.4,0.5,0.1,1.3-0.6,1.3h-7.3c-0.6,0-1,0.7-0.7,1.2L224,340c0.3,0.5-0.1,1.2-0.7,1.2h-23.2
		c-0.5,0-0.8,0.4-0.8,0.8v12.5h39.6c3,0,5.5-2.5,5.5-5.5v-1.9h-8.2V343h8.2v-7.3H231v-4.1h13.4v-7.3h-8.2v-4.1h8.2v-7.3h-12.9V309
		h12.9v-7.3h-8.2v-4.1h8.2v-7.3h-14.3v-4.1h14.3v-7.3h-8.2V275h8.2v-6.6h-14.3v-4.1H244.4z"/>
</g>
</svg>
